<?xml version="1.0" standalone="no"?>
<!DOCTYPE svg PUBLIC "-//W3C//DTD SVG 20010904//EN"
 "http://www.w3.org/TR/2001/REC-SVG-20010904/DTD/svg10.dtd">
<svg version="1.0" xmlns="http://www.w3.org/2000/svg"
 width="108.000000pt" height="98.000000pt" viewBox="0 0 108.000000 98.000000"
 preserveAspectRatio="xMidYMid meet">

<g transform="translate(0.000000,98.000000) scale(0.100000,-0.100000)"
fill="#000000" stroke="none">
<path d="M449 969 c-250 -37 -438 -258 -439 -514 0 -113 47 -245 115 -321 l35
-39 20 24 c11 13 20 35 20 50 0 20 8 30 33 42 17 9 48 24 67 34 19 10 41 21
49 24 7 4 23 23 34 43 21 36 21 37 3 106 -21 82 -19 133 7 185 12 23 20 62 22
103 1 36 6 69 11 74 11 11 84 -54 84 -75 0 -8 8 -19 18 -25 11 -8 13 -13 5
-16 -7 -3 -9 -13 -6 -22 25 -79 70 -136 133 -174 53 -32 118 -104 125 -140 10
-44 22 -58 53 -58 l26 0 -22 -21 c-13 -11 -32 -22 -44 -24 -26 -5 -58 11 -58
31 0 22 -33 81 -37 67 -2 -6 3 -25 11 -41 13 -26 13 -35 -4 -90 l-19 -60 48
-49 c26 -26 50 -55 53 -63 4 -12 11 -10 39 11 129 99 204 232 216 386 26 328
-269 601 -598 552z"/>
<path d="M481 326 c-13 -43 -25 -89 -25 -100 -1 -4 27 -18 62 -31 l62 -22 0
26 c0 15 -6 35 -13 46 -7 11 -19 39 -25 61 -16 55 -47 65 -61 20z"/>
<path d="M427 323 c-4 -3 -7 -14 -7 -23 0 -10 -7 -23 -15 -30 -8 -7 -12 -16
-9 -21 11 -19 24 -7 34 32 11 40 10 55 -3 42z"/>
<path d="M619 272 c5 -18 5 -47 0 -69 -7 -31 -5 -40 8 -50 23 -18 30 -16 37
10 13 50 6 83 -24 112 l-30 28 9 -31z"/>
</g>
</svg>
